<?xml version="1.0" encoding="utf-8"?>
<!-- Generator: Adobe Illustrator 23.0.1, SVG Export Plug-In . SVG Version: 6.00 Build 0)  -->
<svg version="1.1" id="Layer_1" xmlns="http://www.w3.org/2000/svg" xmlns:xlink="http://www.w3.org/1999/xlink" x="0px" y="0px"
	 viewBox="0 0 24 24" style="enable-background:new 0 0 24 24;" xml:space="preserve">
<style type="text/css">
	.st0{fill:#FFFFFF;}
</style>
<g>
	<path class="st0" d="M18.1,8.4c-0.2-0.1,0.3-0.6-0.1-0.6c-0.1,0-0.1,0-0.1,0.1C17.7,8,17.6,8,17.5,8.1c-0.2,0.1-0.5,0.3-0.6,0.4
		c-0.4,0.3-0.7,0.6-0.9,1.1c-0.1,0.2-0.3,0.5-0.3,0.7c0,0.1-0.1,0.1,0.3,0.1c0.4,0,0.3,0.1,0.2-0.1C16.1,10,16.1,9.9,16,9.8
		c-0.2-0.4-0.5-0.8-0.8-1.1c-0.4-0.4-0.8-0.6-1.3-0.8c-0.1,0-0.1-0.1-0.2-0.1v0.3c-0.1,0.2-0.1,0.3,0.1,0.3c0.1,0,0.2-0.1,0.3-0.1
		c0.2-0.1,0.5-0.2,0.7-0.4c0.6-0.4,1.1-1,1.3-1.6c0-0.1,0.1-0.2,0.1-0.4h-0.6V6c0,0.1,0.1,0.1,0.1,0.2C16.1,7.4,16.9,8.1,18.1,8.4
		c0.6,0.2,0.9-0.8,0.3-1c-0.6-0.1-1.1-0.5-1.4-1c-0.3-0.4-0.4-1.3-1-1.3c-0.7,0-0.8,0.8-1.1,1.3c-0.4,0.5-0.8,0.8-1.3,1
		c-0.3,0.1-0.5,0.2-0.6,0.5c-0.1,0.4,0.1,0.6,0.4,0.8c0.2,0.1,0.5,0.1,0.7,0.3c0.3,0.1,0.5,0.4,0.7,0.6c0.1,0.2,0.3,0.4,0.4,0.6
		c0.1,0.3,0.1,0.6,0.5,0.7c0.3,0.1,0.6,0.1,0.8-0.2c0.2-0.2,0.2-0.6,0.4-0.8c0.4-0.6,0.8-1,1.5-1.2c0.3-0.1,0.6-0.3,0.6-0.6
		c0.1-0.4-0.1-0.7-0.5-0.8C17.6,7.3,17.4,8.3,18.1,8.4z"/>
	<path class="st0" d="M11.3,12.8C9,10.5,8.4,7.2,9.6,4.2c0.2-0.5-0.4-0.7-0.7-0.6c-4.4,1.8-6.5,6.7-4.8,11.2c0.8,2,2.4,3.8,4.4,4.7
		c4.4,2.1,9.6,0.4,11.7-4c0.1-0.1,0.1-0.2,0.1-0.4c0.1-0.4-0.1-0.9-0.6-0.7C16.9,15.6,13.5,15,11.3,12.8c-0.5-0.4-1.2,0.3-0.7,0.7
		c2.5,2.5,6.3,3.2,9.5,1.9l-0.6-0.7c-0.8,2-2.5,3.6-4.4,4.3c-1.8,0.6-3.7,0.6-5.5,0c-3.7-1.4-5.8-5.5-4.7-9.3
		c0.6-2.3,2.3-4.2,4.5-5.1L8.7,4c-1.3,3.2-0.6,7,1.9,9.5C11,14,11.7,13.3,11.3,12.8z"/>
</g>
</svg>
