<?xml version="1.0" encoding="utf-8"?>
<!-- Generator: Adobe Illustrator 23.0.1, SVG Export Plug-In . SVG Version: 6.00 Build 0)  -->
<svg version="1.1" id="Layer_2" xmlns="http://www.w3.org/2000/svg" xmlns:xlink="http://www.w3.org/1999/xlink" x="0px" y="0px"
	 viewBox="0 0 24 24" style="enable-background:new 0 0 24 24;" xml:space="preserve">
<style type="text/css">
	.st0{fill:none;}
	.st1{fill:#FFC700;}
</style>
<g>
	<path class="st0" d="M8.9,12.8c1.1-0.9,2.5-1.3,3.9-1c1.2-1.4,3-2.1,4.8-1.8c1.7,0.3,3.1,1.5,3.8,3.1c0.3,0.1,0.6,0.2,0.9,0.4
		c0.2-0.6,0.3-1.2,0.2-1.8C22.4,10,21,8.6,19.3,8.2c-0.2,0-0.4-0.2-0.4-0.4l0,0C19.1,8.5,20,8.3,20,7.7c0,0.6-0.9,0.7-1.1,0.1l0,0
		c0-0.2,0-0.3,0.1-0.5c-0.1,0.1-0.1,0.3-0.1,0.5c-0.7-2.1-2.4-3.6-4.6-4.1c-2.3-0.4-4.7,0.6-6,2.5C8.1,6.5,7.9,6.6,7.6,6.6
		C7.1,6.4,6.5,6.3,6,6.3c-2.7,0.1-4.8,2.2-4.8,4.9c0,2.7,2.2,4.9,4.9,5c0.5,0,0.9,0,1.4,0C7.5,14.9,8,13.7,8.9,12.8z"/>
	<path class="st0" d="M20.8,14.2c-0.2-0.1-0.4-0.2-0.4-0.4c-0.4-1.4-1.6-2.4-3-2.6c-1.5-0.3-3.1,0.4-3.9,1.6
		c-0.1,0.2-0.4,0.3-0.6,0.3c-1.3-0.4-2.8,0-3.6,1.2c-0.4,0.5-0.6,1.2-0.6,1.8c0,1.8,1.4,3.2,3.2,3.2c0.4,0,0.7,0,1.1,0h6.9
		c0.5,0,0.9,0,1.4-0.1c1.1-0.4,1.7-1.4,1.7-2.5C22.8,15.4,21.9,14.4,20.8,14.2z"/>
	<path class="st1" d="M24,16.6c0-0.8-0.3-1.6-0.8-2.2c0.3-0.5,0.4-1.1,0.5-1.7c0.2-2-0.9-4.1-2.7-5.1c-0.4-0.2-0.7-0.3-1.1-0.4
		c0,0,0,0,0,0c0,0,0,0,0,0c-0.7-1.8-2-3.3-3.7-4c-3-1.4-6.6-0.5-8.6,2.2c0,0,0,0,0,0C7.5,5.5,7.4,5.6,7.3,5.7l0.6-0.3c0,0,0,0,0,0
		L7.3,5.7c0.1-0.1,0.2-0.2,0.3-0.4C5.6,4.9,3.5,5.4,2,6.8c-1.5,1.4-2.2,3.5-1.9,5.5c0.3,2,1.6,3.7,3.4,4.5c1,0.5,2.1,0.6,3.1,0.6h1
		c0.3,1.1,1.1,2,2.1,2.6c0.7,0.4,1.5,0.5,2.3,0.5h7.5c0.6,0,1.3,0,1.9-0.2C23,19.6,24.1,18.2,24,16.6z M6.1,16.2
		c-2.7,0-4.9-2.2-4.9-5c0-2.7,2.1-4.9,4.8-4.9c0.6,0,1.1,0.1,1.7,0.2c0.3,0.1,0.5-0.1,0.6-0.3c1.3-1.9,3.7-3,6-2.5
		c2.2,0.4,3.9,2,4.6,4.1c0-0.2,0-0.3,0.1-0.5c-0.1,0.1-0.1,0.3-0.1,0.5l0,0C19.1,8.5,20,8.3,20,7.7c0,0.6-0.9,0.7-1.1,0.1l0,0
		c0,0.2,0.2,0.4,0.4,0.4c1.7,0.4,3.1,1.8,3.2,3.6c0,0.6,0,1.2-0.2,1.8c-0.3-0.2-0.6-0.3-0.9-0.4c-0.6-1.6-2-2.8-3.8-3.1
		c-1.9-0.3-3.7,0.4-4.8,1.8c-1.4-0.3-2.8,0.1-3.9,1c-0.9,0.9-1.4,2.1-1.4,3.3C7,16.2,6.6,16.2,6.1,16.2z M21.2,19.1
		c-0.5,0.2-0.9,0.1-1.4,0.1h-6.9c-0.4,0-0.7,0-1.1,0c-1.8,0-3.2-1.4-3.2-3.2c0-0.7,0.2-1.3,0.6-1.8c0.8-1.2,2.3-1.6,3.6-1.2
		c0.3,0.1,0.5-0.1,0.6-0.3c0.9-1.3,2.4-1.9,3.9-1.6c1.4,0.3,2.5,1.3,3,2.6c0,0.2,0.2,0.4,0.4,0.4c1.1,0.3,2,1.2,2.1,2.4
		C22.9,17.7,22.2,18.7,21.2,19.1z"/>
</g>
</svg>
