<?xml version="1.0" encoding="utf-8"?>
<!-- Generator: Adobe Illustrator 23.0.1, SVG Export Plug-In . SVG Version: 6.00 Build 0)  -->
<svg version="1.1" id="Layer_2" xmlns="http://www.w3.org/2000/svg" xmlns:xlink="http://www.w3.org/1999/xlink" x="0px" y="0px"
	 viewBox="0 0 24 24" style="enable-background:new 0 0 24 24;" xml:space="preserve">
<style type="text/css">
	.st0{fill:#FFC809;}
</style>
<g>
	<path class="st0" d="M18.7,18.5c2.7,0,4.9-2,5.2-4.7c0.3-2.7-1.5-5.2-4.1-5.8l0.5,0.5c-0.8-2.5-3-4.5-5.6-5C11.8,3,8.9,4.3,7.3,6.7
		l0.8-0.3C5.3,5.5,2.2,6.7,0.8,9.3c-1.3,2.5-0.9,5.6,1.2,7.5c1.2,1.1,2.7,1.6,4.2,1.7c0.9,0,0.9-1.3,0-1.3c-2.2,0-4.1-1.5-4.7-3.6
		c-0.6-2.1,0.4-4.4,2.3-5.5c1.2-0.7,2.6-0.8,4-0.4C8,7.8,8.3,7.6,8.5,7.4c1.3-1.9,3.7-2.9,6-2.5c2.1,0.4,3.9,2,4.5,4
		c0.1,0.2,0.2,0.4,0.5,0.5c2,0.4,3.4,2.3,3.2,4.4c-0.2,2-2,3.4-3.9,3.4C17.8,17.2,17.8,18.5,18.7,18.5L18.7,18.5z"/>
	<line class="st0" x1="9.3" y1="18.5" x2="8.7" y2="16.8"/>
	<path class="st0" d="M9.9,18.4l-0.7-1.7c-0.1-0.3-0.4-0.6-0.8-0.5C8.2,16.3,7.9,16.7,8,17l0.7,1.7c0.1,0.3,0.4,0.6,0.8,0.5
		C9.8,19.1,10.1,18.7,9.9,18.4L9.9,18.4z"/>
	<line class="st0" x1="12.7" y1="18.5" x2="12" y2="16.8"/>
	<path class="st0" d="M13.3,18.4l-0.7-1.7c-0.1-0.3-0.4-0.6-0.8-0.5c-0.3,0.1-0.6,0.5-0.5,0.8l0.7,1.7c0.1,0.3,0.4,0.6,0.8,0.5
		C13.2,19.1,13.5,18.7,13.3,18.4L13.3,18.4z"/>
	<line class="st0" x1="16.1" y1="18.5" x2="15.4" y2="16.8"/>
	<path class="st0" d="M16.7,18.4L16,16.7c-0.1-0.3-0.4-0.6-0.8-0.5c-0.3,0.1-0.6,0.5-0.5,0.8l0.7,1.7c0.1,0.3,0.4,0.6,0.8,0.5
		C16.6,19.1,16.8,18.7,16.7,18.4L16.7,18.4z"/>
</g>
</svg>
